name analog
datacolumns 19
datarows 34
range 0.6275000000000001 0.644
endheader
time	ground_force_vx	ground_force_vy	ground_force_vz	ground_force_px	ground_force_py	ground_force_pz	l_ground_force_vx	l_ground_force_vy	l_ground_force_vz	l_ground_force_px	l_ground_force_py	l_ground_force_pz	ground_torque_x	ground_torque_y	ground_torque_z	l_ground_torque_x	l_ground_torque_y	l_ground_torque_z
0.6275000000000001	-0.0	-0.0	-0.0	-0.0	-0.0	-0.0	-8.497764587402344	-6.639370918273926	-499.2141418457031	-0.0	-0.0	-0.0	-0.0	-0.0	-0.0	149625.046875	42547.8515625	-4644.50390625
0.628	-0.0	-0.0	-0.0	-0.0	-0.0	-0.0	-8.651065826416016	-7.242378234863281	-499.5149841308594	-0.0	-0.0	-0.0	-0.0	-0.0	-0.0	150097.984375	42723.88671875	-4911.66015625
0.6285000000000001	-0.0	-0.0	-0.0	-0.0	-0.0	-0.0	-9.387892723083496	-7.16943883895874	-499.635986328125	-0.0	-0.0	-0.0	-0.0	-0.0	-0.0	150140.078125	42675.5078125	-4993.390625
0.629	-0.0	-0.0	-0.0	-0.0	-0.0	-0.0	-9.727163314819336	-7.419021606445312	-500.7883911132813	-0.0	-0.0	-0.0	-0.0	-0.0	-0.0	150478.5	42684.78125	-5121.390625
0.6295000000000001	-0.0	-0.0	-0.0	-0.0	-0.0	-0.0	-9.920019149780272	-7.189896583557129	-500.2115783691406	-0.0	-0.0	-0.0	-0.0	-0.0	-0.0	150379.390625	42478.95703125	-5362.43505859375
0.63	-0.0	-0.0	-0.0	-0.0	-0.0	-0.0	-10.389575004577637	-7.476161479949951	-500.4575500488281	-0.0	-0.0	-0.0	-0.0	-0.0	-0.0	150014.703125	42463.18359375	-5439.56201171875
0.6305000000000001	-0.0	-0.0	-0.0	-0.0	-0.0	-0.0	-10.306172370910645	-7.299395084381103	-500.3961486816406	-0.0	-0.0	-0.0	-0.0	-0.0	-0.0	149923.171875	42461.07421875	-5531.9521484375
0.631	-0.0	-0.0	-0.0	-0.0	-0.0	-0.0	-10.467872619628906	-6.904820442199707	-500.1094665527344	-0.0	-0.0	-0.0	-0.0	-0.0	-0.0	149827.75	42103.17578125	-5542.55810546875
0.6315000000000001	-0.0	-0.0	-0.0	-0.0	-0.0	-0.0	-10.467872619628906	-7.352975845336914	-500.1724853515625	-0.0	-0.0	-0.0	-0.0	-0.0	-0.0	149642.8125	42088.66015625	-5648.611328125
0.632	-0.0	-0.0	-0.0	-0.0	-0.0	-0.0	-10.508790969848633	-7.298978328704834	-499.7969970703125	-0.0	-0.0	-0.0	-0.0	-0.0	-0.0	149297.65625	41741.6171875	-5596.8212890625
0.6325000000000001	-0.0	-0.0	-0.0	-0.0	-0.0	-0.0	-10.306458473205566	-7.419021606445312	-497.6670837402344	-0.0	-0.0	-0.0	-0.0	-0.0	-0.0	148979.15625	41461.50390625	-5675.0458984375
0.633	-0.0	-0.0	-0.0	-0.0	-0.0	-0.0	-10.088594436645508	-7.948951721191406	-497.0653991699219	-0.0	-0.0	-0.0	-0.0	-0.0	-0.0	148263.421875	41124.44140625	-5618.2734375
0.6335000000000001	-0.0	-0.0	-0.0	-0.0	-0.0	-0.0	-10.02431869506836	-8.117465019226074	-494.398681640625	-0.0	-0.0	-0.0	-0.0	-0.0	-0.0	147622.625	40794.20703125	-5653.4267578125
0.634	-0.0	-0.0	-0.0	-0.0	-0.0	-0.0	-10.064377784729004	-8.63082504272461	-492.3376159667969	-0.0	-0.0	-0.0	-0.0	-0.0	-0.0	147037.65625	40431.7109375	-5766.72314453125
0.6345000000000001	-0.0	-0.0	-0.0	-0.0	-0.0	-0.0	-10.089432716369627	-8.920490264892578	-491.762451171875	-0.0	-0.0	-0.0	-0.0	-0.0	-0.0	146680.34375	39748.54296875	-5675.27294921875
0.635	-0.0	-0.0	-0.0	-0.0	-0.0	-0.0	-9.218988418579102	-9.169171333312988	-489.7680358886719	-0.0	-0.0	-0.0	-0.0	-0.0	-0.0	145973.234375	39663.12109375	-5620.8583984375
0.6355000000000001	-0.0	-0.0	-0.0	-0.0	-0.0	-0.0	-9.209495544433594	-9.09713363647461	-488.0234375	-0.0	-0.0	-0.0	-0.0	-0.0	-0.0	145542.609375	39124.42578125	-5634.04248046875
0.636	-0.0	-0.0	-0.0	-0.0	-0.0	-0.0	-8.582186698913574	-9.544986724853516	-488.0244140625	-0.0	-0.0	-0.0	-0.0	-0.0	-0.0	145415.65625	38825.046875	-5399.7724609375
0.6365000000000001	-0.0	-0.0	-0.0	-0.0	-0.0	-0.0	-3.874936580657959	-8.445897102355957	-484.1197204589844	-0.0	-0.0	-0.0	-0.0	-0.0	-0.0	144117.875	37873.44140625	-4150.359375
0.637	-0.0	-0.0	-0.0	-0.0	-0.0	-0.0	-9.69168186187744	-9.577404022216797	-488.746826171875	-0.0	-0.0	-0.0	-0.0	-0.0	-0.0	145244.328125	38065.5390625	-5973.6630859375
0.6375000000000001	-0.0	-0.0	-0.0	-0.0	-0.0	-0.0	-7.407909393310547	-11.675092697143556	-489.7735290527344	-0.0	-0.0	-0.0	-0.0	-0.0	-0.0	145744.65625	37675.92578125	-5401.50390625
0.638	-0.0	-0.0	-0.0	-0.0	-0.0	-0.0	-5.715878486633301	-11.763484954833984	-490.5389709472656	-0.0	-0.0	-0.0	-0.0	-0.0	-0.0	145700.046875	37282.44921875	-4742.0810546875
0.6385000000000001	-0.0	-0.0	-0.0	-0.0	-0.0	-0.0	-6.0109639167785645	-12.15487003326416	-491.5213928222656	-0.0	-0.0	-0.0	-0.0	-0.0	-0.0	145941.859375	36953.48046875	-5061.50830078125
0.639	-0.0	-0.0	-0.0	-0.0	-0.0	-0.0	-5.141076564788818	-12.806644439697266	-493.5007019042969	-0.0	-0.0	-0.0	-0.0	-0.0	-0.0	146243.4375	36830.234375	-4781.43212890625
0.6395000000000001	-0.0	-0.0	-0.0	-0.0	-0.0	-0.0	-4.254322528839111	-13.088518142700195	-493.9009094238281	-0.0	-0.0	-0.0	-0.0	-0.0	-0.0	146564.15625	36560.98046875	-4646.5673828125
0.64	-0.0	-0.0	-0.0	-0.0	-0.0	-0.0	-3.759941339492798	-13.564126014709473	-495.929443359375	-0.0	-0.0	-0.0	-0.0	-0.0	-0.0	146617.234375	36405.5078125	-4496.7880859375
0.6405	-0.0	-0.0	-0.0	-0.0	-0.0	-0.0	-3.405252456665039	-14.376297950744627	-497.12451171875	-0.0	-0.0	-0.0	-0.0	-0.0	-0.0	147020.9375	36248.66796875	-4485.3427734375
0.641	-0.0	-0.0	-0.0	-0.0	-0.0	-0.0	-3.104877471923828	-14.6956148147583	-497.124267578125	-0.0	-0.0	-0.0	-0.0	-0.0	-0.0	147076.875	36137.7109375	-4448.86572265625
0.6415	-0.0	-0.0	-0.0	-0.0	-0.0	-0.0	-2.323740243911743	-15.208514213562012	-499.64544677734375	-0.0	-0.0	-0.0	-0.0	-0.0	-0.0	147305.109375	36019.92578125	-4313.37939453125
0.642	-0.0	-0.0	-0.0	-0.0	-0.0	-0.0	-1.5947368144989014	-15.632938385009766	-501.1088562011719	-0.0	-0.0	-0.0	-0.0	-0.0	-0.0	147793.3125	35990.8828125	-4092.947509765625
0.6425	-0.0	-0.0	-0.0	-0.0	-0.0	-0.0	-1.188024640083313	-15.845955848693848	-501.51861572265625	-0.0	-0.0	-0.0	-0.0	-0.0	-0.0	148016.203125	35849.01953125	-3990.897705078125
0.643	-0.0	-0.0	-0.0	-0.0	-0.0	-0.0	-0.7634585499763489	-16.446584701538086	-502.8470764160156	-0.0	-0.0	-0.0	-0.0	-0.0	-0.0	148274.25	35686.91015625	-3973.8603515625
0.6435	-0.0	-0.0	-0.0	-0.0	-0.0	-0.0	-0.6219848394393921	-16.62294578552246	-505.3604736328125	-0.0	-0.0	-0.0	-0.0	-0.0	-0.0	148853.78125	35287.5078125	-3949.644287109375
0.644	-0.0	-0.0	-0.0	-0.0	-0.0	-0.0	-0.0359061509370803	-17.011035919189453	-506.13128662109375	-0.0	-0.0	-0.0	-0.0	-0.0	-0.0	149113.0	35495.28515625	-3914.348876953125
